<svg width="124" height="43" viewBox="0 0 124 43" fill="none" xmlns="http://www.w3.org/2000/svg">
<path d="M110.14 34.1219L101.517 14.0907H106.606L112.495 28.794H111.023L117.248 14.0907H122.38L113 34.1219H110.14ZM104.125 42.1757L110.392 29.4961L113 34.1219L109.256 42.1757H104.125Z" fill="black"/>
<path d="M93.1738 27.7319V0H97.4106V27.7319H93.1738Z" fill="black"/>
<path d="M80.6588 27.732V1.54077H84.8956V27.732H80.6588ZM76.2294 13.0957V9.24408H89.325V13.0957H76.2294Z" fill="black"/>
<path d="M68.0879 27.7319V9.24398H72.3247V27.7319H68.0879ZM70.2063 5.85452C69.4874 5.85452 68.8839 5.61058 68.3961 5.12271C67.9339 4.63483 67.7028 4.03141 67.7028 3.31243C67.7028 2.59346 67.9339 1.99003 68.3961 1.50215C68.8839 1.01428 69.4874 0.77034 70.2063 0.77034C70.951 0.77034 71.5544 1.01428 72.0166 1.50215C72.4788 1.99003 72.7099 2.59346 72.7099 3.31243C72.7099 4.03141 72.4788 4.63483 72.0166 5.12271C71.5544 5.61058 70.951 5.85452 70.2063 5.85452Z" fill="black"/>
<path d="M52.6783 28.1171C51.0093 28.1171 49.4943 27.6934 48.1334 26.846C46.7981 25.9987 45.7325 24.856 44.9365 23.418C44.1662 21.9544 43.781 20.3239 43.781 18.5264C43.781 16.7033 44.1662 15.0728 44.9365 13.6348C45.7325 12.1712 46.7981 11.0157 48.1334 10.1684C49.4943 9.29532 51.0093 8.8588 52.6783 8.8588C54.0906 8.8588 55.336 9.16693 56.4144 9.7832C57.5186 10.3738 58.3916 11.1955 59.0336 12.2483C59.6755 13.301 59.9965 14.4951 59.9965 15.8303V21.1456C59.9965 22.4808 59.6755 23.6748 59.0336 24.7276C58.4173 25.7804 57.5571 26.6149 56.4529 27.2312C55.3488 27.8218 54.0906 28.1171 52.6783 28.1171ZM53.3716 24.1113C54.4244 24.1113 55.336 23.8802 56.1063 23.418C56.9023 22.9302 57.5186 22.2625 57.9551 21.4152C58.3916 20.5678 58.6099 19.5921 58.6099 18.4879C58.6099 17.3838 58.3916 16.408 57.9551 15.5607C57.5186 14.7133 56.9023 14.0585 56.1063 13.5963C55.336 13.1085 54.4244 12.8645 53.3716 12.8645C52.3445 12.8645 51.433 13.1085 50.6369 13.5963C49.8666 14.0585 49.2504 14.7133 48.7882 15.5607C48.3516 16.408 48.1334 17.3838 48.1334 18.4879C48.1334 19.5921 48.3516 20.5678 48.7882 21.4152C49.2504 22.2625 49.8666 22.9302 50.6369 23.418C51.433 23.8802 52.3445 24.1113 53.3716 24.1113ZM62.5771 27.7319H58.3403V22.7633L59.0721 18.2568L58.3403 13.7889V0H62.5771V27.7319Z" fill="black"/>
<path d="M31.8561 28.117C30.2898 28.117 28.8903 27.7704 27.6578 27.0771C26.451 26.3838 25.5009 25.4337 24.8076 24.2269C24.14 22.9943 23.8062 21.5821 23.8062 19.9901V9.24394H28.043V19.7975C28.043 20.6962 28.1842 21.4665 28.4667 22.1085C28.7748 22.7247 29.2113 23.1998 29.7762 23.5336C30.3668 23.8674 31.0601 24.0343 31.8561 24.0343C33.0886 24.0343 34.0259 23.6748 34.6678 22.9558C35.3354 22.2112 35.6692 21.1584 35.6692 19.7975V9.24394H39.9061V19.9901C39.9061 21.6077 39.5594 23.0329 38.8661 24.2654C38.1985 25.4722 37.2613 26.4223 36.0544 27.1156C34.8476 27.7832 33.4481 28.117 31.8561 28.117Z" fill="black"/>
<path d="M8.89732 28.117C7.22827 28.117 5.71329 27.6934 4.35237 26.846C3.01713 25.9986 1.9515 24.856 1.1555 23.418C0.385165 21.9544 0 20.3239 0 18.5264C0 16.7033 0.385165 15.0728 1.1555 13.6348C1.9515 12.1712 3.01713 11.0157 4.35237 10.1683C5.71329 9.2953 7.22827 8.85878 8.89732 8.85878C10.3096 8.85878 11.555 9.16691 12.6334 9.78318C13.7376 10.3738 14.6106 11.1954 15.2525 12.2482C15.8945 13.301 16.2155 14.495 16.2155 15.8303V21.1456C16.2155 22.4808 15.8945 23.6748 15.2525 24.7276C14.6363 25.7804 13.7761 26.6149 12.6719 27.2312C11.5678 27.8217 10.3096 28.117 8.89732 28.117ZM9.59062 24.1113C11.157 24.1113 12.4152 23.5849 13.3652 22.5321C14.341 21.4794 14.8289 20.1313 14.8289 18.4879C14.8289 17.3838 14.6106 16.408 14.1741 15.5607C13.7376 14.7133 13.1213 14.0585 12.3253 13.5963C11.555 13.1084 10.6434 12.8645 9.59062 12.8645C8.56351 12.8645 7.65195 13.1084 6.85594 13.5963C6.08561 14.0585 5.46935 14.7133 5.00715 15.5607C4.57063 16.408 4.35237 17.3838 4.35237 18.4879C4.35237 19.5921 4.57063 20.5678 5.00715 21.4152C5.46935 22.2625 6.08561 22.9302 6.85594 23.418C7.65195 23.8802 8.56351 24.1113 9.59062 24.1113ZM14.5592 27.7319V22.7632L15.2911 18.2568L14.5592 13.7889V9.24394H18.7961V27.7319H14.5592Z" fill="black"/>
<path d="M120.11 11.0085C119.424 11.0085 118.838 10.8216 118.355 10.4477C117.872 10.0708 117.503 9.52522 117.247 8.81093C116.992 8.09361 116.864 7.22735 116.864 6.21216C116.864 5.20305 116.992 4.34135 117.247 3.62707C117.506 2.90975 117.876 2.36264 118.36 1.98574C118.846 1.6058 119.43 1.41583 120.11 1.41583C120.791 1.41583 121.373 1.6058 121.857 1.98574C122.343 2.36264 122.714 2.90975 122.969 3.62707C123.227 4.34135 123.357 5.20305 123.357 6.21216C123.357 7.22735 123.229 8.09361 122.974 8.81093C122.718 9.52522 122.349 10.0708 121.866 10.4477C121.382 10.8216 120.797 11.0085 120.11 11.0085ZM120.11 10.0055C120.791 10.0055 121.32 9.67719 121.697 9.02066C122.074 8.36413 122.262 7.42796 122.262 6.21216C122.262 5.40366 122.176 4.71521 122.003 4.14682C121.832 3.57844 121.586 3.14531 121.264 2.84744C120.945 2.54957 120.56 2.40063 120.11 2.40063C119.436 2.40063 118.908 2.73346 118.528 3.39911C118.148 4.06172 117.958 4.9994 117.958 6.21216C117.958 7.02067 118.044 7.70759 118.214 8.27294C118.384 8.83829 118.629 9.26838 118.948 9.56321C119.27 9.85804 119.658 10.0055 120.11 10.0055Z" fill="black"/>
<path d="M112.153 11.0085C111.77 11.0024 111.387 10.9295 111.004 10.7896C110.622 10.6498 110.272 10.4143 109.956 10.083C109.64 9.74862 109.386 9.29725 109.194 8.72887C109.003 8.15744 108.907 7.44012 108.907 6.5769C108.907 5.75016 108.985 5.01764 109.14 4.37934C109.295 3.73801 109.52 3.1985 109.815 2.76081C110.109 2.32008 110.465 1.98574 110.881 1.75778C111.301 1.52981 111.773 1.41583 112.299 1.41583C112.822 1.41583 113.287 1.5207 113.694 1.73042C114.105 1.93711 114.439 2.22586 114.697 2.59668C114.956 2.9675 115.123 3.39455 115.199 3.87783H114.087C113.983 3.45838 113.783 3.11035 113.485 2.83376C113.187 2.55716 112.792 2.41887 112.299 2.41887C111.576 2.41887 111.006 2.73346 110.59 3.36263C110.176 3.99181 109.968 4.87478 109.965 6.01155H110.038C110.208 5.7532 110.41 5.53283 110.644 5.35046C110.881 5.16505 111.143 5.0222 111.428 4.92189C111.714 4.82159 112.017 4.77144 112.336 4.77144C112.871 4.77144 113.36 4.90518 113.804 5.17265C114.248 5.43709 114.603 5.80335 114.871 6.27143C115.138 6.73647 115.272 7.26991 115.272 7.87173C115.272 8.44923 115.143 8.97811 114.884 9.45835C114.626 9.93555 114.263 10.3155 113.795 10.5982C113.33 10.8778 112.783 11.0146 112.153 11.0085ZM112.153 10.0055C112.536 10.0055 112.88 9.90971 113.184 9.71822C113.491 9.52673 113.732 9.2699 113.909 8.94771C114.088 8.62552 114.178 8.26686 114.178 7.87173C114.178 7.48571 114.091 7.13465 113.918 6.81854C113.748 6.49939 113.512 6.2456 113.211 6.05715C112.913 5.8687 112.573 5.77447 112.19 5.77447C111.901 5.77447 111.632 5.83222 111.383 5.94772C111.134 6.06019 110.915 6.2152 110.726 6.41277C110.541 6.61034 110.395 6.83678 110.289 7.0921C110.182 7.34437 110.129 7.61033 110.129 7.88996C110.129 8.26078 110.216 8.60729 110.389 8.92947C110.565 9.25166 110.805 9.51154 111.109 9.7091C111.416 9.90667 111.764 10.0055 112.153 10.0055Z" fill="black"/>
<path d="M104.033 11.0085C103.432 11.0085 102.895 10.9052 102.424 10.6985C101.956 10.4918 101.584 10.2046 101.307 9.83679C101.033 9.46598 100.884 9.03589 100.86 8.54653H102.009C102.033 8.84744 102.137 9.10731 102.319 9.32616C102.501 9.54196 102.74 9.70914 103.035 9.82768C103.33 9.94622 103.656 10.0055 104.015 10.0055C104.416 10.0055 104.772 9.93558 105.082 9.79576C105.392 9.65594 105.635 9.46142 105.811 9.21218C105.988 8.96294 106.076 8.67419 106.076 8.34592C106.076 8.00246 105.991 7.70003 105.821 7.43863C105.65 7.17419 105.401 6.96751 105.073 6.81857C104.745 6.66964 104.343 6.59517 103.869 6.59517H103.121V5.59213H103.869C104.24 5.59213 104.565 5.52526 104.845 5.39153C105.128 5.25779 105.348 5.06934 105.506 4.82618C105.667 4.58302 105.748 4.29731 105.748 3.96904C105.748 3.65293 105.678 3.37786 105.538 3.14382C105.398 2.90978 105.201 2.72741 104.945 2.59671C104.693 2.46601 104.395 2.40066 104.052 2.40066C103.729 2.40066 103.425 2.45993 103.14 2.57847C102.857 2.69397 102.626 2.86266 102.447 3.08455C102.267 3.30339 102.17 3.56783 102.155 3.87786H101.061C101.079 3.3885 101.226 2.95993 101.503 2.59215C101.78 2.22133 102.141 1.93258 102.588 1.72589C103.038 1.51921 103.532 1.41586 104.07 1.41586C104.647 1.41586 105.143 1.53288 105.556 1.76693C105.97 1.99793 106.287 2.3034 106.509 2.68333C106.731 3.06327 106.842 3.4736 106.842 3.91433C106.842 4.44016 106.704 4.88849 106.427 5.25931C106.153 5.63013 105.781 5.88697 105.31 6.02982V6.10277C105.9 6.20003 106.36 6.45079 106.691 6.85505C107.023 7.25626 107.188 7.75322 107.188 8.34592C107.188 8.85352 107.05 9.30944 106.773 9.71369C106.5 10.1149 106.126 10.431 105.652 10.662C105.178 10.893 104.638 11.0085 104.033 11.0085Z" fill="black"/>
</svg>
