<svg width="24" height="24" viewBox="0 0 24 24" fill="none" xmlns="http://www.w3.org/2000/svg">
<path d="M10.9107 23.6163C8.864 23.6163 7.00618 23.0968 5.33729 22.0577C3.69989 21.0185 2.39312 19.6173 1.41698 17.8539C0.472327 16.0591 0 14.0596 0 11.8554C0 9.61972 0.472327 7.6202 1.41698 5.85685C2.39312 4.06201 3.69989 2.64503 5.33729 1.60591C7.00618 0.535304 8.864 0 10.9107 0C12.6426 0 14.1698 0.377862 15.4923 1.13358C16.8463 1.85782 17.9169 2.86545 18.7041 4.15647C19.4913 5.4475 19.885 6.91171 19.885 8.54911V15.0672C19.885 16.7046 19.4913 18.1688 18.7041 19.4599C17.9484 20.7509 16.8936 21.7743 15.5395 22.53C14.1855 23.2542 12.6426 23.6163 10.9107 23.6163ZM11.7609 18.7041C13.6817 18.7041 15.2247 18.0586 16.3897 16.7676C17.5863 15.4766 18.1846 13.8234 18.1846 11.8082C18.1846 10.4542 17.9169 9.2576 17.3816 8.21848C16.8463 7.17937 16.0906 6.37641 15.1145 5.80962C14.1698 5.21134 13.052 4.9122 11.7609 4.9122C10.5014 4.9122 9.38356 5.21134 8.40742 5.80962C7.46276 6.37641 6.70704 7.17937 6.14025 8.21848C5.60494 9.2576 5.33729 10.4542 5.33729 11.8082C5.33729 13.1622 5.60494 14.3587 6.14025 15.3978C6.70704 16.437 7.46276 17.2557 8.40742 17.8539C9.38356 18.4207 10.5014 18.7041 11.7609 18.7041ZM17.8539 23.144V17.051L18.7514 11.5248L17.8539 6.04578V0.472326H23.0495V23.144H17.8539Z" fill="white"/>
</svg>
