<svg width="124" height="43" viewBox="0 0 124 43" fill="none" xmlns="http://www.w3.org/2000/svg">
<path d="M110.14 34.1218L101.517 14.0906H106.606L112.495 28.7939H111.023L117.248 14.0906H122.38L113 34.1218H110.14ZM104.125 42.1756L110.392 29.496L113 34.1218L109.256 42.1756H104.125Z" fill="white"/>
<path d="M93.1738 27.732V8.39233e-05H97.4106V27.732H93.1738Z" fill="white"/>
<path d="M80.6588 27.7319V1.54069H84.8956V27.7319H80.6588ZM76.2294 13.0956V9.24399H89.325V13.0956H76.2294Z" fill="white"/>
<path d="M68.0879 27.7319V9.24398H72.3247V27.7319H68.0879ZM70.2063 5.85452C69.4874 5.85452 68.8839 5.61058 68.3961 5.12271C67.9339 4.63483 67.7028 4.03141 67.7028 3.31243C67.7028 2.59346 67.9339 1.99003 68.3961 1.50215C68.8839 1.01428 69.4874 0.77034 70.2063 0.77034C70.951 0.77034 71.5544 1.01428 72.0166 1.50215C72.4788 1.99003 72.7099 2.59346 72.7099 3.31243C72.7099 4.03141 72.4788 4.63483 72.0166 5.12271C71.5544 5.61058 70.951 5.85452 70.2063 5.85452Z" fill="white"/>
<path d="M52.6783 28.1171C51.0093 28.1171 49.4943 27.6935 48.1334 26.8461C46.7981 25.9987 45.7325 24.8561 44.9365 23.4181C44.1662 21.9545 43.781 20.324 43.781 18.5265C43.781 16.7034 44.1662 15.0729 44.9365 13.6349C45.7325 12.1713 46.7981 11.0158 48.1334 10.1684C49.4943 9.29541 51.0093 8.85888 52.6783 8.85888C54.0906 8.85888 55.336 9.16702 56.4144 9.78328C57.5186 10.3739 58.3916 11.1956 59.0336 12.2483C59.6755 13.3011 59.9965 14.4951 59.9965 15.8304V21.1457C59.9965 22.4809 59.6755 23.6749 59.0336 24.7277C58.4173 25.7805 57.5571 26.615 56.4529 27.2313C55.3488 27.8219 54.0906 28.1171 52.6783 28.1171ZM53.3716 24.1114C54.4244 24.1114 55.336 23.8803 56.1063 23.4181C56.9023 22.9303 57.5186 22.2626 57.9551 21.4153C58.3916 20.5679 58.6099 19.5922 58.6099 18.488C58.6099 17.3839 58.3916 16.4081 57.9551 15.5608C57.5186 14.7134 56.9023 14.0586 56.1063 13.5964C55.336 13.1085 54.4244 12.8646 53.3716 12.8646C52.3445 12.8646 51.433 13.1085 50.6369 13.5964C49.8666 14.0586 49.2504 14.7134 48.7882 15.5608C48.3516 16.4081 48.1334 17.3839 48.1334 18.488C48.1334 19.5922 48.3516 20.5679 48.7882 21.4153C49.2504 22.2626 49.8666 22.9303 50.6369 23.4181C51.433 23.8803 52.3445 24.1114 53.3716 24.1114ZM62.5771 27.732H58.3403V22.7633L59.0721 18.2569L58.3403 13.789V8.39233e-05H62.5771V27.732Z" fill="white"/>
<path d="M31.8561 28.1171C30.2898 28.1171 28.8903 27.7705 27.6578 27.0772C26.451 26.3839 25.5009 25.4338 24.8076 24.227C24.14 22.9944 23.8062 21.5822 23.8062 19.9901V9.24403H28.043V19.7976C28.043 20.6963 28.1842 21.4666 28.4667 22.1086C28.7748 22.7248 29.2113 23.1999 29.7762 23.5337C30.3668 23.8675 31.0601 24.0344 31.8561 24.0344C33.0886 24.0344 34.0259 23.6749 34.6678 22.9559C35.3354 22.2113 35.6692 21.1585 35.6692 19.7976V9.24403H39.9061V19.9901C39.9061 21.6078 39.5594 23.0329 38.8661 24.2655C38.1985 25.4723 37.2613 26.4224 36.0544 27.1157C34.8476 27.7833 33.4481 28.1171 31.8561 28.1171Z" fill="white"/>
<path d="M8.89732 28.117C7.22827 28.117 5.71329 27.6934 4.35237 26.846C3.01713 25.9986 1.9515 24.856 1.1555 23.418C0.385165 21.9544 0 20.3239 0 18.5264C0 16.7033 0.385165 15.0728 1.1555 13.6348C1.9515 12.1712 3.01713 11.0157 4.35237 10.1683C5.71329 9.2953 7.22827 8.85878 8.89732 8.85878C10.3096 8.85878 11.555 9.16691 12.6334 9.78318C13.7376 10.3738 14.6106 11.1954 15.2525 12.2482C15.8945 13.301 16.2155 14.495 16.2155 15.8303V21.1456C16.2155 22.4808 15.8945 23.6748 15.2525 24.7276C14.6363 25.7804 13.7761 26.6149 12.6719 27.2312C11.5678 27.8217 10.3096 28.117 8.89732 28.117ZM9.59062 24.1113C11.157 24.1113 12.4152 23.5849 13.3652 22.5321C14.341 21.4794 14.8289 20.1313 14.8289 18.4879C14.8289 17.3838 14.6106 16.408 14.1741 15.5607C13.7376 14.7133 13.1213 14.0585 12.3253 13.5963C11.555 13.1084 10.6434 12.8645 9.59062 12.8645C8.56351 12.8645 7.65195 13.1084 6.85594 13.5963C6.08561 14.0585 5.46935 14.7133 5.00715 15.5607C4.57063 16.408 4.35237 17.3838 4.35237 18.4879C4.35237 19.5921 4.57063 20.5678 5.00715 21.4152C5.46935 22.2625 6.08561 22.9302 6.85594 23.418C7.65195 23.8802 8.56351 24.1113 9.59062 24.1113ZM14.5592 27.7319V22.7632L15.2911 18.2568L14.5592 13.7889V9.24394H18.7961V27.7319H14.5592Z" fill="white"/>
<path d="M120.11 11.0085C119.424 11.0085 118.838 10.8216 118.355 10.4477C117.872 10.0708 117.503 9.52524 117.247 8.81096C116.992 8.09363 116.864 7.22738 116.864 6.21218C116.864 5.20307 116.992 4.34137 117.247 3.62709C117.506 2.90977 117.876 2.36266 118.36 1.98576C118.846 1.60582 119.43 1.41586 120.11 1.41586C120.791 1.41586 121.373 1.60582 121.857 1.98576C122.343 2.36266 122.714 2.90977 122.969 3.62709C123.227 4.34137 123.357 5.20307 123.357 6.21218C123.357 7.22738 123.229 8.09363 122.974 8.81096C122.718 9.52524 122.349 10.0708 121.866 10.4477C121.382 10.8216 120.797 11.0085 120.11 11.0085ZM120.11 10.0055C120.791 10.0055 121.32 9.67721 121.697 9.02068C122.074 8.36415 122.262 7.42798 122.262 6.21218C122.262 5.40368 122.176 4.71523 122.003 4.14684C121.832 3.57846 121.586 3.14533 121.264 2.84746C120.945 2.54959 120.56 2.40065 120.11 2.40065C119.436 2.40065 118.908 2.73348 118.528 3.39913C118.148 4.06174 117.958 4.99942 117.958 6.21218C117.958 7.02069 118.044 7.70762 118.214 8.27296C118.384 8.83831 118.629 9.2684 118.948 9.56323C119.27 9.85806 119.658 10.0055 120.11 10.0055Z" fill="white"/>
<path d="M112.153 11.0085C111.77 11.0024 111.387 10.9295 111.004 10.7897C110.622 10.6499 110.272 10.4143 109.956 10.083C109.64 9.74864 109.386 9.29728 109.194 8.72889C109.003 8.15746 108.907 7.44014 108.907 6.57692C108.907 5.75018 108.985 5.01766 109.14 4.37937C109.295 3.73803 109.52 3.19852 109.815 2.76083C110.109 2.32011 110.465 1.98576 110.881 1.7578C111.301 1.52984 111.773 1.41586 112.299 1.41586C112.822 1.41586 113.287 1.52072 113.694 1.73044C114.105 1.93713 114.439 2.22588 114.697 2.5967C114.956 2.96752 115.123 3.39457 115.199 3.87785H114.087C113.983 3.4584 113.783 3.11038 113.485 2.83378C113.187 2.55719 112.792 2.41889 112.299 2.41889C111.576 2.41889 111.006 2.73348 110.59 3.36265C110.176 3.99183 109.968 4.8748 109.965 6.01158H110.038C110.208 5.75322 110.41 5.53286 110.644 5.35049C110.881 5.16508 111.143 5.02222 111.428 4.92192C111.714 4.82161 112.017 4.77146 112.336 4.77146C112.871 4.77146 113.36 4.9052 113.804 5.17268C114.248 5.43711 114.603 5.80337 114.871 6.27145C115.138 6.7365 115.272 7.26993 115.272 7.87175C115.272 8.44925 115.143 8.97813 114.884 9.45837C114.626 9.93557 114.263 10.3155 113.795 10.5982C113.33 10.8778 112.783 11.0146 112.153 11.0085ZM112.153 10.0055C112.536 10.0055 112.88 9.90973 113.184 9.71825C113.491 9.52676 113.732 9.26992 113.909 8.94773C114.088 8.62555 114.178 8.26689 114.178 7.87175C114.178 7.48573 114.091 7.13467 113.918 6.81856C113.748 6.49942 113.512 6.24562 113.211 6.05717C112.913 5.86872 112.573 5.7745 112.19 5.7745C111.901 5.7745 111.632 5.83225 111.383 5.94775C111.134 6.06021 110.915 6.21522 110.726 6.41279C110.541 6.61036 110.395 6.8368 110.289 7.09212C110.182 7.3444 110.129 7.61035 110.129 7.88999C110.129 8.26081 110.216 8.60731 110.389 8.9295C110.565 9.25168 110.805 9.51156 111.109 9.70913C111.416 9.9067 111.764 10.0055 112.153 10.0055Z" fill="white"/>
<path d="M104.033 11.0086C103.432 11.0086 102.895 10.9053 102.424 10.6986C101.956 10.4919 101.584 10.2047 101.307 9.83688C101.033 9.46606 100.884 9.03597 100.86 8.54661H102.009C102.033 8.84752 102.137 9.1074 102.319 9.32624C102.501 9.54205 102.74 9.70922 103.035 9.82776C103.33 9.9463 103.656 10.0056 104.015 10.0056C104.416 10.0056 104.772 9.93566 105.082 9.79585C105.392 9.65603 105.635 9.4615 105.811 9.21226C105.988 8.96302 106.076 8.67427 106.076 8.346C106.076 8.00254 105.991 7.70011 105.821 7.43871C105.65 7.17428 105.401 6.96759 105.073 6.81866C104.745 6.66972 104.343 6.59525 103.869 6.59525H103.121V5.59222H103.869C104.24 5.59222 104.565 5.52535 104.845 5.39161C105.128 5.25787 105.348 5.06942 105.506 4.82626C105.667 4.5831 105.748 4.29739 105.748 3.96913C105.748 3.65302 105.678 3.37794 105.538 3.1439C105.398 2.90986 105.201 2.72749 104.945 2.59679C104.693 2.46609 104.395 2.40074 104.052 2.40074C103.729 2.40074 103.425 2.46001 103.14 2.57856C102.857 2.69406 102.626 2.86275 102.447 3.08463C102.267 3.30348 102.17 3.56791 102.155 3.87794H101.061C101.079 3.38858 101.226 2.96001 101.503 2.59223C101.78 2.22141 102.141 1.93266 102.588 1.72598C103.038 1.51929 103.532 1.41595 104.07 1.41595C104.647 1.41595 105.143 1.53297 105.556 1.76701C105.97 1.99801 106.287 2.30348 106.509 2.68342C106.731 3.06336 106.842 3.47369 106.842 3.91442C106.842 4.44025 106.704 4.88857 106.427 5.25939C106.153 5.63021 105.781 5.88705 105.31 6.02991V6.10285C105.9 6.20012 106.36 6.45088 106.691 6.85513C107.023 7.25634 107.188 7.7533 107.188 8.346C107.188 8.8536 107.05 9.30953 106.773 9.71378C106.5 10.115 106.126 10.4311 105.652 10.6621C105.178 10.8931 104.638 11.0086 104.033 11.0086Z" fill="white"/>
</svg>
