<?xml version="1.0" encoding="UTF-8" standalone="no"?>
<!DOCTYPE svg PUBLIC "-//W3C//DTD SVG 1.1//EN" "http://www.w3.org/Graphics/SVG/1.1/DTD/svg11.dtd">
<svg width="100%" height="100%" viewBox="0 0 1400 1400" version="1.1" xmlns="http://www.w3.org/2000/svg" xmlns:xlink="http://www.w3.org/1999/xlink" xml:space="preserve" xmlns:serif="http://www.serif.com/" style="fill-rule:evenodd;clip-rule:evenodd;stroke-linejoin:round;stroke-miterlimit:1.41421;">
    <g>
        <path d="M628,1244.62C623.04,1239.7 617.39,1237.24 611.05,1237.24C603.46,1237.24 597.6,1240.18 593.47,1246.06C589.34,1251.94 587.28,1259.68 587.28,1269.27C587.28,1278.36 589.32,1286.01 593.41,1292.22C597.5,1298.43 603.42,1301.54 611.18,1301.54C617.59,1301.54 623.25,1299.01 628.13,1293.97C633.01,1288.92 635.45,1280.73 635.45,1269.39C635.45,1257.8 632.96,1249.54 628,1244.62Z" style="fill:none;"/>
        <path d="M367.06,1294.65C371.52,1289.15 373.76,1280.51 373.76,1268.76C373.76,1258.42 371.59,1250.35 367.25,1244.55C362.92,1238.75 357.04,1235.86 349.62,1235.86C333.69,1235.86 325.73,1247.37 325.73,1270.39C325.73,1279.82 327.71,1287.59 331.68,1293.72C335.63,1299.85 341.62,1302.91 349.63,1302.91C356.79,1302.91 362.6,1300.16 367.06,1294.65Z" style="fill:none;"/>
        <path d="M913.18,1303.29L883.17,1293.66C873.74,1303.17 864.41,1307.92 855.15,1307.92C848.06,1307.92 841.33,1305.63 834.95,1301.04C828.57,1296.45 825.09,1288.65 824.51,1277.65L914.7,1277.65C914.7,1264.81 912.74,1253.18 908.82,1242.75C904.89,1232.33 897.89,1223.61 887.8,1216.61C877.71,1209.61 865.74,1206.11 851.89,1206.11C832.79,1206.11 817.07,1212.36 804.74,1224.87C792.4,1237.38 786.23,1252.97 786.23,1271.65C786.23,1290 792.21,1304.8 804.18,1316.06C816.14,1327.32 832.8,1332.94 854.15,1332.94C880.92,1332.93 900.59,1323.05 913.18,1303.29ZM849.9,1231.73C857.49,1231.73 863.47,1234.11 867.86,1238.86C872.25,1243.62 874.89,1249.37 875.79,1256.12L825.13,1256.12C827.46,1239.87 835.72,1231.73 849.9,1231.73Z" style="fill:rgb(43,44,43);fill-rule:nonzero;"/>
        <path d="M759.95,1179.07C764.62,1179.07 768.21,1183.41 770.71,1192.08L798.73,1170.19C790.72,1158.85 777.25,1153.18 758.32,1153.18C742.72,1153.18 730.99,1157.45 723.11,1166C715.22,1174.55 711.29,1185.2 711.29,1197.96L711.29,1209.09L695.02,1209.09L695.02,1236.99L711.29,1236.99L711.29,1302.29L693.78,1302.29L693.78,1330.18L768.96,1330.18L768.96,1302.29L749.95,1302.29L749.95,1236.99L768.96,1236.99L768.96,1209.09L749.95,1209.09L749.95,1195.83C749.95,1184.66 753.28,1179.07 759.95,1179.07Z" style="fill:rgb(43,44,43);fill-rule:nonzero;"/>
        <path d="M1191.26,1283.14C1187.92,1288.98 1183.5,1293.67 1178,1297.21C1172.5,1300.76 1166.67,1302.53 1160.49,1302.53C1152.74,1302.53 1146.19,1299.8 1140.86,1294.33C1135.53,1288.87 1132.85,1280.43 1132.85,1269C1132.85,1259.58 1135.37,1252.05 1140.42,1246.42C1145.46,1240.79 1152.24,1237.98 1160.75,1237.98C1174.09,1237.98 1183.89,1244.74 1190.15,1258.24L1217.66,1258.24L1217.66,1209.08L1191.27,1209.08L1191.27,1219.09C1179.93,1211.17 1167.71,1207.21 1154.62,1207.21C1138.27,1207.21 1123.95,1212.77 1111.65,1223.91C1099.36,1235.04 1093.2,1250.24 1093.2,1269.51C1093.2,1288.77 1099.48,1304.16 1112.03,1315.67C1124.58,1327.18 1141.4,1332.93 1162.5,1332.93C1190.52,1332.93 1210.12,1320.73 1221.3,1296.35L1191.26,1283.14Z" style="fill:rgb(43,44,43);fill-rule:nonzero;"/>
        <path d="M1360,1242.74C1356.07,1232.32 1349.07,1223.6 1338.98,1216.6C1328.89,1209.6 1316.91,1206.1 1303.07,1206.1C1283.97,1206.1 1268.25,1212.35 1255.92,1224.86C1243.58,1237.37 1237.4,1252.96 1237.4,1271.64C1237.4,1289.99 1243.38,1304.79 1255.35,1316.05C1267.32,1327.31 1283.97,1332.93 1305.32,1332.93C1332.09,1332.93 1351.77,1323.05 1364.36,1303.29L1334.35,1293.66C1324.92,1303.17 1315.59,1307.92 1306.32,1307.92C1299.23,1307.92 1292.5,1305.63 1286.12,1301.04C1279.74,1296.45 1276.26,1288.65 1275.68,1277.65L1365.86,1277.65C1365.88,1264.8 1363.92,1253.17 1360,1242.74ZM1276.32,1256.12C1278.65,1239.86 1286.91,1231.73 1301.09,1231.73C1308.68,1231.73 1314.66,1234.11 1319.05,1238.86C1323.44,1243.62 1326.08,1249.37 1326.98,1256.12L1276.32,1256.12Z" style="fill:rgb(43,44,43);fill-rule:nonzero;"/>
        <path d="M1080.06,1330.18L1080.06,1302.29L1061.8,1302.29L1061.8,1254C1061.8,1222.82 1049.58,1207.22 1025.14,1207.22C1013.13,1207.22 1001.3,1211.6 989.62,1220.36L989.62,1209.1L932.46,1209.1L932.46,1237L950.97,1237L950.97,1302.3L932.46,1302.3L932.46,1330.19L1008.26,1330.19L1008.26,1302.3L989.63,1302.3L989.63,1247.63C997.13,1242.38 1004.46,1239.75 1011.64,1239.75C1015.72,1239.75 1018.67,1240.96 1020.46,1243.38C1022.26,1245.8 1023.15,1250.3 1023.15,1256.88L1023.15,1330.18L1080.06,1330.18Z" style="fill:rgb(43,44,43);fill-rule:nonzero;"/>
        <path d="M149.35,1331.3L175.24,1251.87L202.64,1331.3L235.16,1331.3L283.2,1185.58L302.08,1185.58L302.08,1156.18L232.41,1156.18L232.41,1185.58L249.8,1185.58L222.4,1269.14L193.88,1185.58L210.02,1185.58L210.02,1156.18L147.47,1156.18L147.47,1185.58L163.24,1185.58L136.72,1269.14L108.45,1185.58L126.46,1185.58L126.46,1156.18L48.03,1156.18L48.03,1185.58L66.41,1185.58L116.08,1331.3L149.35,1331.3Z" style="fill:rgb(0,113,158);fill-rule:nonzero;"/>
        <path d="M395.21,1315.79C407.34,1304.36 413.41,1288.94 413.41,1269.5C413.41,1249.82 407.28,1234.33 395.03,1223.03C382.76,1211.73 367.67,1206.09 349.74,1206.09C331.9,1206.09 316.83,1211.73 304.52,1223.03C292.22,1234.33 286.07,1249.82 286.07,1269.5C286.07,1289.19 292.22,1304.68 304.52,1315.98C316.82,1327.28 331.9,1332.92 349.74,1332.92C367.92,1332.93 383.08,1327.22 395.21,1315.79ZM331.67,1293.72C327.71,1287.59 325.72,1279.82 325.72,1270.39C325.72,1247.37 333.68,1235.86 349.61,1235.86C357.03,1235.86 362.91,1238.76 367.24,1244.55C371.58,1250.35 373.75,1258.41 373.75,1268.76C373.75,1280.52 371.52,1289.15 367.05,1294.65C362.59,1300.15 356.78,1302.9 349.6,1302.9C341.61,1302.91 335.62,1299.84 331.67,1293.72Z" style="fill:rgb(0,113,158);fill-rule:nonzero;"/>
        <path d="M497.09,1261.38C501.09,1254.05 506.18,1249.29 512.35,1247.12C518.52,1244.95 526.49,1243.87 536.24,1243.87L536.24,1207.34C533.82,1207.26 531.74,1207.22 529.99,1207.22C519.48,1207.22 510.37,1210.45 502.66,1216.91C494.94,1223.37 490,1231.02 487.84,1239.87L487.84,1209.1L431.43,1209.1L431.43,1236.99L452.44,1236.99L452.44,1302.29L430.06,1302.29L430.06,1330.18L515.25,1330.18L515.25,1302.29L491.11,1302.29L491.11,1287.41C491.09,1277.39 493.09,1268.72 497.09,1261.38Z" style="fill:rgb(0,113,158);fill-rule:nonzero;"/>
        <path d="M635.08,1330.18L693.61,1330.18L693.61,1302.29L673.73,1302.29L673.73,1156.18L616.18,1156.18L616.18,1184.08L635.07,1184.08L635.07,1222.57C625.89,1211.58 614.25,1206.1 600.17,1206.1C585.49,1206.1 573.07,1212.16 562.89,1224.3C552.72,1236.43 547.64,1251.34 547.64,1269.02C547.64,1286.45 552.59,1301.3 562.52,1313.56C572.44,1325.82 584.95,1331.95 600.04,1331.95C612.63,1331.95 624.31,1326.55 635.07,1315.78L635.07,1330.18L635.08,1330.18ZM628.13,1293.97C623.25,1299.02 617.6,1301.54 611.18,1301.54C603.42,1301.54 597.5,1298.43 593.41,1292.22C589.32,1286.01 587.28,1278.36 587.28,1269.27C587.28,1259.68 589.34,1251.95 593.47,1246.06C597.6,1240.18 603.46,1237.24 611.05,1237.24C617.38,1237.24 623.03,1239.71 628,1244.62C632.96,1249.54 635.45,1257.8 635.45,1269.39C635.45,1280.73 633.01,1288.92 628.13,1293.97Z" style="fill:rgb(0,113,158);fill-rule:nonzero;"/>
        <g>
            <path d="M649.29,777.91C649.36,777.91 649.45,777.9 649.51,777.89C649.44,777.89 649.36,777.88 649.29,777.88L649.29,777.91Z" style="fill:white;fill-rule:nonzero;"/>
            <path d="M697.94,260.96L697.96,261L764.98,408.25L765.61,409.66L742.72,409.75C742.75,409.94 742.77,410.14 742.8,410.33C743.16,412.52 743.45,414.72 743.45,417.01C743.45,424.24 741.58,430.97 738.41,436.92C736.94,439.68 735.21,442.29 733.21,444.68C733.21,444.68 730.22,476.88 730.51,536.67C730.51,536.74 730.51,536.8 730.51,536.87C730.69,572.7 732.69,625.66 736.88,683.59C806.98,687.56 872.18,695.55 932.04,705.98L932.04,455.96L914.57,455.89L959.31,357.63L1002.24,456.24L984.76,456.17L984.76,716.04C1048.56,729.31 1105.31,745.08 1154.29,761.11L1154.29,543.41L1136.82,543.34L1181.56,445.08L1224.49,543.69L1207.01,543.62L1207.01,779.48C1265.05,800.97 1308.36,821.35 1335.07,835.03C1368.46,520.12 1300.06,246.97 1300.06,246.97C981.4,236.67 697.94,67.07 697.94,67.07L697.94,260.96Z" style="fill:rgb(33,141,193);fill-rule:nonzero;"/>
            <path d="M1207.01,835.25L1207.01,1081.42L1281.48,1081.42C1291.99,1047.3 1301.09,1012.21 1308.71,977.91L1308.72,977.92C1318.25,943.52 1324.04,915.29 1327.53,894.87C1327.54,894.88 1327.67,894.1 1327.72,893.73C1327.94,892.43 1328.15,891.18 1328.35,889.95C1309.72,879.89 1268.18,858.82 1207.01,835.25Z" style="fill:rgb(33,141,193);fill-rule:nonzero;"/>
            <path d="M984.76,769.22L984.76,1081.43L1154.29,1081.43L1154.29,816.15C1106.02,799.71 1049.16,783.19 984.76,769.22Z" style="fill:rgb(33,141,193);fill-rule:nonzero;"/>
            <path d="M932.04,1081.42L932.04,758.68C873.54,748.03 809.67,739.78 741.13,735.56C741.15,735.83 741.18,736.1 741.2,736.36C741.33,737.66 745.69,772.09 746.37,777.88C757.05,857.56 778.64,983.27 800.71,1081.23L799.61,1081.23C799.62,1081.29 799.64,1081.35 799.65,1081.41L932.04,1081.41L932.04,1081.42Z" style="fill:rgb(33,141,193);fill-rule:nonzero;"/>
            <path d="M595.17,1081.24C617.24,983.28 638.83,857.57 649.51,777.89C649.44,777.89 649.35,777.9 649.29,777.91L649.29,777.89C649.36,777.89 649.44,777.9 649.51,777.9C650.19,772.11 654.55,737.67 654.68,736.38C654.7,736.11 654.73,735.85 654.75,735.58C585.74,739.84 521.8,748.17 463.84,758.68L463.84,1081.43L596.22,1081.43C596.23,1081.37 596.24,1081.31 596.26,1081.25L595.17,1081.25L595.17,1081.24Z" style="fill:rgb(26,113,157);fill-rule:nonzero;"/>
            <path d="M188.88,779.47L188.88,543.61L171.4,543.68L214.33,445.07L259.07,543.33L241.6,543.4L241.6,761.1C290.57,745.07 347.32,729.3 411.13,716.03L411.13,456.16L393.65,456.23L436.58,357.62L481.32,455.88L463.85,455.95L463.85,705.97C523.7,695.54 588.9,687.55 659,683.58C663.18,625.65 665.19,572.69 665.37,536.86C665.37,536.79 665.37,536.73 665.37,536.66C665.66,476.87 662.67,444.67 662.67,444.67C660.67,442.28 658.94,439.67 657.47,436.91C654.3,430.96 652.43,424.23 652.43,417C652.43,414.72 652.72,412.51 653.08,410.32C653.11,410.13 653.13,409.93 653.16,409.74L630.27,409.65L630.9,408.24L697.92,261L697.94,260.96L697.94,67.07C697.94,67.07 414.48,236.67 95.83,246.95C95.83,246.95 27.43,520.1 60.82,835.01C87.52,821.34 130.84,800.96 188.88,779.47Z" style="fill:rgb(26,113,157);fill-rule:nonzero;"/>
            <path d="M241.6,815.84L241.6,1081.42L411.13,1081.42L411.13,769.12C344.41,783.52 287.33,800.3 241.6,815.84Z" style="fill:rgb(26,113,157);fill-rule:nonzero;"/>
            <path d="M67.57,889.9C67.56,889.9 67.55,889.91 67.55,889.91C67.75,891.15 67.96,892.41 68.18,893.72C68.23,894.1 68.29,894.51 68.35,894.88C68.36,894.87 68.37,894.87 68.38,894.87C71.86,915.29 77.66,943.52 87.19,977.92L87.2,977.91C94.82,1012.22 103.91,1047.3 114.43,1081.42L188.9,1081.42L188.9,834.97C127.87,858.54 86.23,879.78 67.57,889.9Z" style="fill:rgb(26,113,157);fill-rule:nonzero;"/>
        </g>
        <path d="M1379.67,1203.99C1387.17,1203.99 1393,1209.82 1393,1217.08C1393,1224.5 1387.17,1230.25 1379.59,1230.25C1372.09,1230.25 1366.1,1224.5 1366.1,1217.08C1366.1,1209.81 1372.09,1203.99 1379.59,1203.99L1379.67,1203.99ZM1379.51,1206.62C1373.76,1206.62 1369.45,1211.33 1369.45,1217.08C1369.45,1222.91 1373.76,1227.54 1379.67,1227.54C1385.42,1227.62 1389.65,1222.91 1389.65,1217.08C1389.65,1211.33 1385.42,1206.62 1379.59,1206.62L1379.51,1206.62ZM1377.51,1223.87L1374.48,1223.87L1374.48,1210.85C1375.68,1210.61 1377.35,1210.37 1379.51,1210.37C1381.99,1210.37 1383.1,1210.77 1384.06,1211.41C1384.78,1211.97 1385.34,1213.01 1385.34,1214.21C1385.34,1215.73 1384.22,1216.84 1382.62,1217.32L1382.62,1217.48C1383.9,1217.88 1384.62,1218.92 1385.02,1220.67C1385.42,1222.67 1385.66,1223.47 1385.98,1223.86L1382.71,1223.86C1382.31,1223.38 1382.07,1222.26 1381.67,1220.74C1381.43,1219.3 1380.63,1218.66 1378.96,1218.66L1377.52,1218.66L1377.52,1223.87L1377.51,1223.87ZM1377.59,1216.52L1379.03,1216.52C1380.71,1216.52 1382.06,1215.96 1382.06,1214.6C1382.06,1213.4 1381.18,1212.6 1379.27,1212.6C1378.47,1212.6 1377.91,1212.68 1377.59,1212.76L1377.59,1216.52Z" style="fill:rgb(43,44,43);fill-rule:nonzero;"/>
    </g>
</svg>
